# xmcd CD database file
#
# Track frame offsets:
#	182
#	10532
#	21560
#	37267
#	53545
#	68835
#	81577
#	94155
#	113217
#	125250
#
# Disc length: 1885 seconds
#
# Revision: 1
# Processed by: cddbd v1.4PL0 Copyright (c) Steve Scherf et al.
# Submitted via: CDex 1.50Beta6
#
DISCID=81075b0a
DTITLE=John Michael Montgomery - Home To You
DYEAR=1999
DGENRE=Country
TTITLE0=Love Made Me Do It
TTITLE1=Hello L-O-V-E
TTITLE2=Home To You
TTITLE3=Your Love Lingers On
TTITLE4=You Are
TTITLE5=Sinkin' In
TTITLE6=Holdin' An Amazing Love
TTITLE7=When Your Arms Were Around
TTITLE8=Love Is Our Business
TTITLE9=Nothing Catches Jesus By Surprise
EXTD=YEAR: 1999
EXTT0=
EXTT1=
EXTT2=
EXTT3=
EXTT4=
EXTT5=
EXTT6=
EXTT7=
EXTT8=
EXTT9=
PLAYORDER=
